:SAMPLES-PER-SECOND 30
:FULLY-SPECIFIED
:DEGREES
146
root  -56.9712 39.7807 15.4891 -158.893 -77.2777 158.904
RightUpLeg  -20.0018 -13.4098 -6.88
RightLeg  17.4241 11.782 4.77095
RightFoot  3.36407 -0.12092 1.11489
RightToes  1.33877e-009 0 -3.6325e-017
Spine  23.3624 -4.41261 9.84157
Spine1  6.64757 -1.73768 -5.1736
HEad  -16.0595 -21.9621 8.50614
LeftShoulder1  1.72503 -4.3881 -15.0337
LeftArm  -20.9236 -46.5791 -35.4504
LeftForeArm  -10.2343 -47.1484 -12.7785
LeftHand  -0.079279 1.4635 2.1446
RightShoulder  0.469424 -0.151904 6.30637
RightArm  -32.1402 46.4997 32.4142
RightForeArm  -19.7275 48.0637 13.7891
RightHand  -0.111237 2.23547 -1.88181
LeftUpLeg  -17.3108 -14.1496 5.21204
LeftLeg  25.0546 -11.5066 -5.49738
LeftFoot  -9.43299 0.161748 -6.36217
LeftToes  -1.45701e-009 4.75788e-011 -4.21586e-011
147
root  -57.1437 39.7566 16.0904 -164.48 -74.6406 163.474
RightUpLeg  -18.832 -12.6166 -7.27043
RightLeg  16.4957 13.8899 5.01722
RightFoot  3.58205 -0.254588 2.13035
RightToes  1.33877e-009 0 -3.6325e-017
Spine  22.669 -4.17356 9.33513
Spine1  7.30562 -1.56093 -5.06366
HEad  -16.177 -23.5961 9.68687
LeftShoulder1  1.72285 -3.85518 -16.7032
LeftArm  -20.0407 -43.172 -34.2468
LeftForeArm  -9.06176 -50.2525 -14.1813
LeftHand  -0.0898257 1.19102 2.33595
RightShoulder  0.459547 -0.514702 7.93083
RightArm  -28.0053 42.8109 36.8143
RightForeArm  -16.9234 53.9404 16.8746
RightHand  -0.180982 2.05752 -3.00004
LeftUpLeg  -15.0427 -16.4193 5.02364
LeftLeg  24.2491 -11.5051 -5.29315
LeftFoot  -10.5441 0.100577 -5.78704
LeftToes  -1.45701e-009 4.75788e-011 -4.21586e-011
148
root  -57.3017 39.6664 16.7331 -169.378 -71.6174 168.005
RightUpLeg  -18.7099 -11.3876 -6.9951
RightLeg  15.8795 15.8897 5.01806
RightFoot  3.83688 -0.357341 2.88006
RightToes  1.33877e-009 0 -3.6325e-017
Spine  21.5581 -4.03814 9.24733
Spine1  7.68587 -1.3269 -5.60507
HEad  -15.9889 -24.4815 10.2464
LeftShoulder1  1.63653 -3.31823 -17.3495
LeftArm  -19.4092 -39.5297 -32.5043
LeftForeArm  -8.25376 -53.2021 -15.7683
LeftHand  -0.0945179 0.801802 2.31458
RightShoulder  0.460902 -0.887639 10.4501
RightArm  -23.9944 38.6026 40.7176
RightForeArm  -11.2299 59.9148 20.9394
RightHand  -0.189845 1.92118 -3.19596
LeftUpLeg  -13.402 -17.8835 4.95779
LeftLeg  23.7456 -13.5816 -6.14399
LeftFoot  -11.584 0.05698 -5.79687
LeftToes  -1.45701e-009 4.75788e-011 -4.21586e-011
149
root  -57.49 39.5856 17.4199 -173.149 -67.3855 170.935
RightUpLeg  -18.0503 -10.0035 -6.8085
RightLeg  14.6679 18.7724 4.81535
RightFoot  3.86561 -0.606956 4.74381
RightToes  1.33877e-009 0 -3.6325e-017
Spine  20.9962 -3.63364 8.31937
Spine1  7.88895 -1.04487 -5.53935
HEad  -15.3996 -24.8294 9.86852
LeftShoulder1  1.51647 -2.53269 -18.5553
LeftArm  -19.6602 -34.7498 -31.1767
LeftForeArm  -5.47403 -56.8632 -17.972
LeftHand  -0.0751873 0.652012 1.77862
RightShoulder  0.454256 -1.13138 12.1354
RightArm  -20.2426 34.5562 44.8906
RightForeArm  -6.57121 64.4363 25.4677
RightHand  -0.243719 1.53774 -4.22912
LeftUpLeg  -11.02 -17.0596 3.83685
LeftLeg  23.5624 -15.0459 -6.76589
LeftFoot  -12.5023 0.0569384 -2.41921
LeftToes  -1.45701e-009 4.75788e-011 -4.21586e-011
150
root  -57.5879 39.5273 18.1031 -175.853 -62.8256 173.295
RightUpLeg  -17.7296 -8.47033 -6.26226
RightLeg  12.5019 21.7367 4.1824
RightFoot  4.21303 -0.994994 7.45954
RightToes  1.33877e-009 0 -3.6325e-017
Spine  19.8725 -3.25115 7.12578
Spine1  8.37084 -0.7405 -5.9886
HEad  -15.2541 -23.9574 9.98603
LeftShoulder1  1.37814 -1.84653 -19.2313
LeftArm  -20.143 -29.7708 -29.9287
LeftForeArm  -2.68045 -60.4669 -20.678
LeftHand  -0.0956281 0.887593 2.37042
RightShoulder  0.498589 -1.16942 14.7035
RightArm  -16.5725 30.6396 47.148
RightForeArm  -0.307499 68.5405 31.357
RightHand  -0.293934 1.81163 -4.9043
LeftUpLeg  -9.38053 -15.3344 2.93959
LeftLeg  22.8818 -12.5279 -5.42424
LeftFoot  -14.3869 0.0887536 0.27506
LeftToes  -1.45701e-009 4.75788e-011 -4.21586e-011
151
root  -57.6678 39.5261 18.852 -177.419 -58.5544 174.249
RightUpLeg  -16.5611 -7.72737 -6.17247
RightLeg  8.79261 24.9288 2.77146
RightFoot  4.59234 -1.54499 11.2734
RightToes  1.33877e-009 0 -3.6325e-017
Spine  19.1144 -2.6038 5.5114
Spine1  8.98112 -0.38699 -5.67263
HEad  -15.3712 -24.3515 9.84829
LeftShoulder1  1.32127 -1.48105 -20.046
LeftArm  -20.4743 -25.805 -29.8792
LeftForeArm  0.91009 -63.5332 -23.529
LeftHand  -0.0743098 0.846876 1.80621
RightShoulder  0.36914 -1.87739 16.2813
RightArm  -14.0685 26.3128 48.7524
RightForeArm  7.57702 72.1875 39.3308
RightHand  -0.325423 1.93417 -5.33106
LeftUpLeg  -8.4056 -13.1461 1.58838
LeftLeg  22.7724 -9.47908 -4.00576
LeftFoot  -13.8705 0.118264 1.56113
LeftToes  -1.45701e-009 4.75788e-011 -4.21586e-011
152
root  -57.7083 39.4548 19.6977 -177.992 -55.1158 173.785
RightUpLeg  -15.7153 -8.51624 -6.82906
RightLeg  6.10071 28.4278 1.6843
RightFoot  3.75198 -1.99088 15.1281
RightToes  1.33877e-009 0 -3.6325e-017
Spine  18.4878 -2.5542 3.53713
Spine1  10.2188 -0.770654 -5.03726
HEad  -16.1474 -23.598 9.75021
LeftShoulder1  1.19583 -0.8487 -21.0648
LeftArm  -21.3965 -22.4444 -29.2714
LeftForeArm  5.52515 -66.4868 -26.9458
LeftHand  -0.0430775 0.746321 0.989067
RightShoulder  0.227131 -2.55561 17.8607
RightArm  -12.1357 22.6214 50.3563
RightForeArm  18.3535 74.9652 48.9568
RightHand  -0.291333 1.78172 -4.88785
LeftUpLeg  -8.11131 -12.3859 -0.408134
LeftLeg  23.482 -6.55045 -2.78068
LeftFoot  -12.909 0.10027 1.69497
LeftToes  -1.45701e-009 4.75788e-011 -4.21586e-011
153
root  -57.7158 39.4519 20.4244 -178.263 -50.1656 173.612
RightUpLeg  -15.5341 -8.13872 -6.64089
RightLeg  2.67508 30.8489 -0.219002
RightFoot  3.74979 -2.18362 16.5926
RightToes  1.33877e-009 0 -3.6325e-017
Spine  17.5619 -1.63238 0.915242
Spine1  10.6217 -0.496014 -3.83101
HEad  -16.0871 -23.0083 10.763
LeftShoulder1  1.0714 -0.272308 -22.0215
LeftArm  -21.4701 -18.9411 -28.1827
LeftForeArm  8.81697 -68.8805 -30.6284
LeftHand  -0.0384644 0.897641 0.881239
RightShoulder  0.185913 -2.75898 19.2131
RightArm  -10.3289 17.9652 51.1673
RightForeArm  30.4163 76.9964 61.0725
RightHand  -0.348169 1.69791 -5.88242
LeftUpLeg  -7.82091 -8.84226 -1.63657
LeftLeg  23.1847 -4.90538 -1.96389
LeftFoot  -12.3063 0.0948921 2.43016
LeftToes  -1.45701e-009 4.75788e-011 -4.21586e-011
154
root  -57.7509 39.5187 21.1937 -179.624 -45.3444 174.098
RightUpLeg  -14.894 -8.10138 -6.5402
RightLeg  0.216261 27.5942 -1.2169
RightFoot  3.6931 -1.84248 14.0286
RightToes  1.33877e-009 0 -3.6325e-017
Spine  17.2231 -1.2637 -0.00349893
Spine1  10.9152 -0.219579 -3.82181
HEad  -15.8438 -21.7567 9.94473
LeftShoulder1  0.905734 0.39739 -22.8141
LeftArm  -20.8157 -15.8585 -26.6668
LeftForeArm  11.7774 -70.7262 -34.3899
LeftHand  -0.0242901 0.78107 0.511189
RightShoulder  0.139833 -2.94889 19.9219
RightArm  -9.24438 13.4011 52.2287
RightForeArm  43.5322 78.11 72.7241
RightHand  -0.316725 2.11436 -5.09414
LeftUpLeg  -6.87384 -5.28635 -2.31807
LeftLeg  22.446 -3.70625 -1.34871
LeftFoot  -11.5872 0.0747119 2.72151
LeftToes  -1.45701e-009 4.75788e-011 -4.21586e-011
155
root  -57.7844 39.5644 21.9199 179.476 -40.624 174.173
RightUpLeg  -14.9871 -8.78844 -7.06951
RightLeg  0.907404 17.6969 -0.389862
RightFoot  1.64974 -1.29005 11.4552
RightToes  1.33877e-009 0 -3.6325e-017
Spine  17.1965 -1.19501 -0.451288
Spine1  10.6992 -0.0637268 -4.37059
HEad  -15.6816 -20.0703 8.79715
LeftShoulder1  0.725863 1.07883 -23.7612
LeftArm  -20.6452 -11.8905 -25.2309
LeftForeArm  17.8428 -73.0856 -40.2809
LeftHand  -0.0485226 0.898917 1.14158
RightShoulder  0.11683 -3.05081 20.7662
RightArm  -8.21843 8.97248 53.3918
RightForeArm  57.3208 78.6333 85.4536
RightHand  -0.299018 1.04032 -5.5054
LeftUpLeg  -6.26539 -2.68699 -3.17776
LeftLeg  21.8751 -1.6362 -0.381554
LeftFoot  -10.7148 0.0459959 3.4522
LeftToes  -1.45701e-009 4.75788e-011 -4.21586e-011
156
root  -57.7433 39.578 22.5431 178.518 -36.4739 175.149
RightUpLeg  -15.3106 -9.61478 -7.12649
RightLeg  3.19481 6.22356 1.06663
RightFoot  0.168477 -1.14335 11.3574
RightToes  1.33877e-009 0 -3.6325e-017
Spine  16.8212 -1.19357 -0.462999
Spine1  10.665 0.00736668 -4.60653
HEad  -15.9555 -18.9446 7.89681
LeftShoulder1  0.502923 1.90659 -25.1426
LeftArm  -20.1607 -9.22173 -23.7936
LeftForeArm  23.425 -74.6278 -45.5981
LeftHand  -0.0225689 0.698982 0.47937
RightShoulder  0.112789 -3.05395 21.0637
RightArm  -7.90244 4.62723 54.1758
RightForeArm  69.9279 78.6017 97.6733
RightHand  -0.331328 1.56413 -5.69598
LeftUpLeg  -6.69432 0.0468041 -2.80061
LeftLeg  22.1921 -0.370809 0.171826
LeftFoot  -10.3619 0.0304528 3.73994
LeftToes  -1.45701e-009 4.75788e-011 -4.21586e-011
157
root  -57.6661 39.6827 23.1494 177.725 -32.7054 176.369
RightUpLeg  -16.2051 -10.7431 -6.59075
RightLeg  7.60035 2.03181 1.52966
RightFoot  0.802214 -0.868528 8.18616
RightToes  1.33877e-009 0 -3.6325e-017
Spine  16.3522 -1.40615 -0.0846701
Spine1  10.8377 -0.0515306 -5.0546
HEad  -16.1449 -16.8346 7.85112
LeftShoulder1  0.417138 2.14581 -24.7174
LeftArm  -20.3502 -5.31571 -24.2042
LeftForeArm  31.0717 -76.166 -52.6073
LeftHand  0.00469895 0.387703 -0.160791
RightShoulder  -0.0300209 -3.57854 23.4498
RightArm  -6.68643 2.69976 52.5085
RightForeArm  76.7173 78.3808 103.871
RightHand  -0.294427 1.8059 -4.91215
LeftUpLeg  -6.99232 1.41417 -2.11647
LeftLeg  21.5961 1.74783 1.10211
LeftFoot  -9.54202 0.00124837 3.58536
LeftToes  -1.45701e-009 4.75788e-011 -4.21586e-011
